<svg xmlns="http://www.w3.org/2000/svg" version="1.1" xmlns:xlink="http://www.w3.org/1999/xlink" xmlns:svgjs="http://svgjs.dev/svgjs" width="100%" height="100%" viewBox="0 0 1000 600"><rect width="1000" height="600" x="0" y="0" fill="#6ca0dc"/><g><circle r="166.66666666666666" cx="444.87345377604163" cy="467.0955002300217" fill="#fcedda" transform="matrix(0.44930641604375793,0,0,0.4493064160437578,0,90.13101089143332)"/><path d="M440.1535839590449 542.0955001982657L440.1535839590449 542.0955001982657Q429.8376008770112 542.0955001982657 417.05215466337097 539.7853572686981Q404.30653850024055 537.4752143391308 395.10579683248073 534.0498299952895L395.10579683248073 534.0498299952895L395.10579683248073 512.8204130735753L407.73192284408185 515.6881767102798Q411.4759475920014 518.2771299934157 419.64110794650685 520.9855734280809Q427.8062683010123 523.7338469132558 438.71970214069273 523.7338469132558L438.71970214069273 523.7338469132558Q455.0500228497036 523.7338469132558 462.8168826991112 517.0025683771025Q470.54391249800904 510.2314597904395 470.54391249800904 500.51292746605253L470.54391249800904 500.51292746605253Q470.54391249800904 491.9096365559395 465.3660059317373 487.2893506968047Q460.2279294159754 482.7088948881797 451.6246385058623 479.84113125147536Q443.02134759574926 476.973367614771 432.984174867284 473.8267936244982L432.984174867284 473.8267936244982Q422.6681917852503 470.4014092806569 414.06490087513725 465.7811234215221Q405.4616099650242 461.2006676128971 400.2837033987525 453.9117683696069Q395.10579683248073 446.5830390758069 395.10579683248073 435.39079488255794L395.10579683248073 435.39079488255794Q395.10579683248073 422.4858585173884 401.8769054191438 412.72749614249165Q408.608183955297 403.00896381810463 420.1987286536438 397.55224689826446Q431.8291034025003 392.0955299784243 446.44673193959056 392.0955299784243L446.44673193959056 392.0955299784243Q454.77121249613515 392.0955299784243 464.9677054266395 394.08703250391335Q475.12436830663404 396.1183650799123 487.1928736110982 400.14120018140034L487.1928736110982 400.14120018140034L487.1928736110982 417.3477820016264L471.9777943163612 415.3164494256275Q465.96345668938403 413.6037572537069 459.78979886036774 412.44868578892317Q453.61614103135145 411.29361432413947 447.88061375794274 411.29361432413947L447.88061375794274 411.29361432413947Q439.55613320139815 411.29361432413947 433.1036650188134 413.88256760727535Q426.65119683622856 416.4715208904112 422.9470021388188 421.05197669903623Q419.20297739089926 425.63243250766124 419.20297739089926 431.68660018514817L419.20297739089926 431.68660018514817Q419.20297739089926 439.69244033761447 425.37663521991556 444.4322163482786Q431.55029304893185 449.17199235894276 440.4323943126134 452.0397559956471Q449.3144955762949 454.90751963235147 457.36016577927103 457.49647291548735L457.36016577927103 457.49647291548735Q466.7998877500895 460.3642365521917 475.2836885086732 464.94469236081665Q483.7276592167471 469.5251481694417 489.18437613658733 476.973367614771Q494.64109305642756 484.42158706010036 494.64109305642756 496.49009236456453L494.64109305642756 496.49009236456453Q494.64109305642756 509.39502872973407 487.90981452027427 519.7110118117678Q481.1387059336113 530.0269948938014 468.95071047761775 536.0413325207787Q456.7627150216243 542.0955001982657 440.1535839590449 542.0955001982657ZM471.69898396279274 432.80184159942206L468.8312203260884 411.29361432413947L487.1928736110982 415.037639072059L487.1928736110982 437.4221274585569L477.7133215897699 437.4221274585569Q474.84555795306557 437.4221274585569 473.4116761347134 436.10773579173406Q471.9777943163612 434.833174175421 471.69898396279274 432.80184159942206L471.69898396279274 432.80184159942206ZM410.5996864807862 500.791737819621L413.46745011749056 522.2999650949037L395.10579683248073 518.555940346984L395.10579683248073 496.21128201099606L404.585348853809 496.21128201099606Q407.73192284408185 496.21128201099606 409.04631451090466 497.48584362730907Q410.32087612721773 498.76040524362213 410.5996864807862 500.791737819621L410.5996864807862 500.791737819621Z " fill="#ee4e34" transform="matrix(0.44930641604375793,0,0,0.4493064160437578,0,90.13101089143332)"/><path d="M726.5009600540131 542.095503082732L726.5009600540131 542.095503082732Q719.2582316952701 542.095503082732 710.2817228027739 540.4735793576081Q701.3331781124349 538.8516556324842 694.8734474140965 536.4467342469557L694.8734474140965 536.4467342469557L694.8734474140965 521.5418144971097L703.7380994979635 523.555237052436Q706.3667345007505 525.372910192661 712.0993959429989 527.2744759393581Q717.8320573852473 529.2040058882126 725.49424877635 529.2040058882126L725.49424877635 529.2040058882126Q736.9595716608467 529.2040058882126 742.412591081522 524.4780557236272Q747.83764630004 519.7241413568847 747.83764630004 512.9008760305012L747.83764630004 512.9008760305012Q747.83764630004 506.8606083645225 744.2023000195898 503.6167609142746Q740.5949179412969 500.40087766618404 734.5546502753182 498.3874551108578Q728.5143826093393 496.3740325555315 721.4674036656975 494.1648605851041L721.4674036656975 494.1648605851041Q714.2246753069544 491.7599391995755 708.1844076409757 488.51609174932764Q702.1441399749968 485.3002085012371 698.5087936945466 480.18275950644954Q694.8734474140965 475.03734630950464 694.8734474140965 467.17940550330076L694.8734474140965 467.17940550330076Q694.8734474140965 458.11900400433257 699.627361780839 451.26777447579184Q704.3533119454243 444.4445091494084 712.4908947732013 440.61341345385705Q720.6564418031355 436.78231775830574 730.919303994868 436.78231775830574L730.919303994868 436.78231775830574Q736.7638222457456 436.78231775830574 743.9226579980168 438.1805278661712Q751.0535295481305 439.60670217619395 759.5266828017952 442.43108659408216L759.5266828017952 442.43108659408216L759.5266828017952 454.5116219260397L748.8443575777031 453.08544761601695Q744.6217630519495 451.88298692325264 740.2873117175666 451.0720250606907Q735.9528603831836 450.26106319812874 731.9260152725311 450.26106319812874L731.9260152725311 450.26106319812874Q726.0814970216535 450.26106319812874 721.5512962721693 452.0787363383538Q717.0210955226853 453.8964094785789 714.4204247220555 457.11229272666947Q711.7917897192685 460.32817597476003 711.7917897192685 464.578734702671L711.7917897192685 464.578734702671Q711.7917897192685 470.1995393362902 716.1262410536515 473.52727939300996Q720.4606923880343 476.85501944972975 726.6967094691142 478.868442005056Q732.9327265501943 480.88186456038227 738.5814953859707 482.6995377006074L738.5814953859707 482.6995377006074Q745.209011297253 484.71296025593364 751.1653863567598 487.92884350402414Q757.0937972141094 491.1447267521147 760.9248929096607 496.3740325555315Q764.755988605212 501.60333835894835 764.755988605212 510.076491612613L764.755988605212 510.076491612613Q764.755988605212 519.1368931115812 760.0300384406269 526.3796214703243Q755.2761240738843 533.6223498290674 746.7190782137477 537.8449443548211Q738.162032353611 542.095503082732 726.5009600540131 542.095503082732ZM748.6486081626019 465.36173236307565L746.6351856072757 450.26106319812874L759.5266828017952 452.8896982009158L759.5266828017952 468.6055798133235L752.8712026883557 468.6055798133235Q750.8577801330293 468.6055798133235 749.8510688553663 467.68276114213234Q748.8443575777031 466.78790667309846 748.6486081626019 465.36173236307565L748.6486081626019 465.36173236307565ZM705.7515220532897 513.0966254456024L707.7649446086159 528.1972946105493L694.8734474140965 525.5686596077624L694.8734474140965 509.88074219751184L701.5289275275361 509.88074219751184Q703.7380994979635 509.88074219751184 704.6609181691547 510.77559666654577Q705.5557726381885 511.67045113557964 705.7515220532897 513.0966254456024L705.7515220532897 513.0966254456024ZM816.0982637660317 542.095503082732L816.0982637660317 542.095503082732Q804.0177284340741 542.095503082732 797.4741051292638 535.3281661606632Q790.9304818244534 528.5887934407517 790.9304818244534 515.9210098634906L790.9304818244534 515.9210098634906L790.9304818244534 453.50491064837655L778.6541970773947 453.50491064837655Q777.0322733522707 453.50491064837655 775.9137052659785 452.49819937071345Q774.8231013818433 451.49148809305035 774.8231013818433 449.47806553772404L774.8231013818433 449.47806553772404L774.8231013818433 442.43108659408216L791.5177300697569 440.1939504214974L795.7682887976679 408.7901513988392Q796.1597876278703 405.3785187356475 799.7951339083204 405.3785187356475L799.7951339083204 405.3785187356475L808.8555354072886 405.3785187356475L808.8555354072886 440.4176640387559L838.0501624595194 440.4176640387559L838.0501624595194 453.50491064837655L808.8555354072886 453.50491064837655L808.8555354072886 514.690584968569Q808.8555354072886 521.1503156669075 811.9595618467499 524.2543421063688Q815.0915524883685 527.3863327479874 820.1251088766842 527.3863327479874L820.1251088766842 527.3863327479874Q822.3342808471117 527.3863327479874 824.9629158498986 526.1838720552231Q827.5635866505285 524.9814113624589 829.7727586209559 523.7509864675371Q832.0098947935406 522.548525774773 833.0166060712037 522.548525774773L833.0166060712037 522.548525774773Q834.4148161790691 522.548525774773 835.4215274567323 524.1704494998969L835.4215274567323 524.1704494998969L840.6508332601492 532.8113879665054Q836.0367399041932 537.0619466944163 829.4931165993828 539.5787248885742Q822.9494932945724 542.095503082732 816.0982637660317 542.095503082732ZM900.8577605048357 436.78231775830574L900.8577605048357 436.78231775830574Q916.1541790848838 436.78231775830574 926.9203969154479 443.32594106311603Q937.7145789481692 449.8695643679264 943.5311329968896 461.7543502847828Q949.3756512477672 473.6391362016392 949.3756512477672 489.32705361188965L949.3756512477672 489.32705361188965Q949.3756512477672 505.04293522429737 943.5311329968896 516.9277211411538Q937.7145789481692 528.7845428558528 926.9203969154479 535.3281661606632Q916.1541790848838 541.8717894654735 900.8577605048357 541.8717894654735L900.8577605048357 541.8717894654735Q885.95284075499 541.8717894654735 874.9908735093248 535.3281661606632Q864.0009420615023 528.7845428558528 858.0725312041527 516.9277211411538Q852.1441203468032 505.04293522429737 852.1441203468032 489.32705361188965L852.1441203468032 489.32705361188965Q852.1441203468032 473.6391362016392 858.0725312041527 461.7543502847828Q864.0009420615023 449.8695643679264 874.9908735093248 443.32594106311603Q885.95284075499 436.78231775830574 900.8577605048357 436.78231775830574ZM900.8577605048357 527.7778315781898L900.8577605048357 527.7778315781898Q915.9584296697827 527.7778315781898 923.3969074436269 517.7107188015584Q930.8633494196284 507.6436060249271 930.8633494196284 489.5228030269908L930.8633494196284 489.5228030269908Q930.8633494196284 477.24651827993205 927.5356093629086 468.68947241979544Q924.2078693061889 460.1324265596589 917.5803533949066 455.51833320370287Q910.9248732814671 450.87627564558954 900.8577605048357 450.87627564558954L900.8577605048357 450.87627564558954Q890.5948983131033 450.87627564558954 883.8555255931918 455.6022258101748Q877.088188671123 460.32817597476003 873.8723054230323 468.99707864352587Q870.6564221749419 477.6659813122917 870.6564221749419 489.5228030269908L870.6564221749419 489.5228030269908Q870.6564221749419 507.0563577796236 878.0948999487861 517.4310767799853Q885.5613419247876 527.7778315781898 900.8577605048357 527.7778315781898ZM1008.1843683845883 541.8717894654735L1008.1843683845883 541.8717894654735Q994.8734081577092 541.8717894654735 984.7224027746059 535.3281661606632Q974.5434331893454 528.7845428558528 968.810771747097 516.9277211411538Q963.0781103048487 505.04293522429737 963.0781103048487 489.32705361188965L963.0781103048487 489.32705361188965Q963.0781103048487 474.03063503184154 968.5031655233666 462.1458491149851Q973.9561849440419 450.26106319812874 984.6105459659767 443.5216904782172Q995.2928711900688 436.78231775830574 1011.2045022175777 436.78231775830574L1011.2045022175777 436.78231775830574Q1017.4405192986577 436.78231775830574 1025.6899589350637 438.9075971222612Q1033.93939857147 441.0049122840594 1041.4058405474716 444.02504611704876L1041.4058405474716 444.02504611704876L1041.4058405474716 454.90312075624206L1030.9192647384807 454.28790830878125Q1026.892419627828 452.8896982009158 1022.362218878344 451.88298692325264Q1017.83201812886 450.87627564558954 1012.2112134952408 450.87627564558954L1012.2112134952408 450.87627564558954Q1001.920387101351 450.87627564558954 995.1810143814395 455.6022258101748Q988.441641661528 460.32817597476003 985.0300089983364 468.99707864352587Q981.5904121329874 477.6659813122917 981.5904121329874 489.32705361188965L981.5904121329874 489.32705361188965Q981.5904121329874 506.8606083645225 989.25260352409 517.4310767799853Q996.8868307130355 528.0015451954482 1011.2045022175777 528.0015451954482L1011.2045022175777 528.0015451954482Q1019.0344788216242 528.0015451954482 1024.0680352099398 525.4847670012904Q1029.1015915982557 522.9679888071325 1032.3454390485035 520.4512106129748Q1035.561322296594 517.9344324188169 1037.378995436819 517.9344324188169L1037.378995436819 517.9344324188169Q1038.3857067144822 517.9344324188169 1039.280561183516 518.3259312490193Q1040.1754156525499 518.7174300792215 1040.790628100011 519.5283919417835L1040.790628100011 519.5283919417835L1045.8241844883264 526.1838720552231Q1039.168704374887 534.2375622765281 1029.3253052155142 538.0686579720796Q1019.453941853984 541.8717894654735 1008.1843683845883 541.8717894654735ZM1030.5277659082785 467.37515491840196L1028.514343352952 452.274485753455L1041.4058405474716 454.90312075624206L1041.4058405474716 470.6190023686498L1034.750360434032 470.6190023686498Q1032.7369378787057 470.6190023686498 1031.7302266010427 469.6961836974586Q1030.7235153233796 468.80132922842466 1030.5277659082785 467.37515491840196L1030.5277659082785 467.37515491840196ZM1089.5042682580433 540.4735793576081L1071.6071788773656 540.4735793576081L1071.6071788773656 392.09552271092565L1089.5042682580433 392.09552271092565L1089.5042682580433 479.4556902503595L1094.1463258161566 479.4556902503595Q1096.1597483714831 479.4556902503595 1097.5579584793486 478.868442005056Q1098.9841327893712 478.2532295575952 1100.3823428972366 476.65927003462855L1100.3823428972366 476.65927003462855L1132.597103782457 442.0116235617225Q1134.219027507581 440.4176640387559 1135.6172376154464 439.41095276109274Q1137.043411925469 438.40424148342964 1139.6440827260985 438.40424148342964L1139.6440827260985 438.40424148342964L1155.9472125838101 438.40424148342964L1118.307396480072 478.44897897269635Q1116.9091863722065 479.8751532827191 1115.5948688708127 481.27336339058456Q1114.2805513694193 482.6995377006074 1112.4628782291943 483.7062489782705L1112.4628782291943 483.7062489782705Q1115.9024750945432 486.1111703637991 1118.503145895173 490.1380154744516L1118.503145895173 490.1380154744516L1158.3800981714958 540.4735793576081L1142.2727177288857 540.4735793576081Q1140.0635457584583 540.4735793576081 1138.6373714484357 539.5787248885742Q1137.2391613405703 538.6559062173831 1135.6172376154464 536.8382330771578L1135.6172376154464 536.8382330771578L1102.0042666223608 495.1715718627672Q1100.578092312338 492.9623998923398 1099.068025395843 492.347187444879Q1097.5579584793486 491.7599391995755 1094.537824646359 491.7599391995755L1094.537824646359 491.7599391995755L1089.5042682580433 491.7599391995755L1089.5042682580433 540.4735793576081ZM1138.050123203132 454.09215889368005L1135.2257387852437 454.70737134114086L1131.00314425949 448.05189122770133L1131.00314425949 438.40424148342964L1154.3532530608434 438.40424148342964L1138.050123203132 454.09215889368005ZM1144.4818896993133 524.7576977452004L1142.2727177288857 540.4735793576081L1132.597103782457 522.1570269445706L1144.4818896993133 524.7576977452004ZM1077.6474465433444 540.4735793576081L1057.0937579577221 540.4735793576081L1057.0937579577221 532.2241397212019Q1057.0937579577221 530.4064665809767 1057.9047198202838 529.2878984946844Q1058.715681682846 528.1972946105493 1060.3096412058126 528.0015451954482L1060.3096412058126 528.0015451954482L1075.4103103707596 524.7576977452004L1077.6474465433444 540.4735793576081ZM1104.0176891776869 540.4735793576081L1083.4640005920646 540.4735793576081L1085.7011367646492 524.7576977452004L1100.8018059295964 528.0015451954482Q1102.395765452563 528.1972946105493 1103.2067273151247 529.2878984946844Q1104.0176891776869 530.4064665809767 1104.0176891776869 532.2241397212019L1104.0176891776869 532.2241397212019L1104.0176891776869 540.4735793576081ZM1057.0937579577221 392.09552271092565L1077.6474465433444 392.09552271092565L1075.4103103707596 407.78344012117606L1060.3096412058126 404.56755687308555Q1058.715681682846 404.1760580428832 1057.9047198202838 403.1693467652201Q1057.0937579577221 402.16263548755694 1057.0937579577221 400.3449623473319L1057.0937579577221 400.3449623473319L1057.0937579577221 392.09552271092565ZM1135.8129870305474 438.40424148342964L1156.3666756161697 438.40424148342964L1156.3666756161697 446.6536811198358Q1156.3666756161697 448.47135426006093 1155.5557137536075 449.47806553772404Q1154.7447518910458 450.4847768153872 1153.1507923680792 450.87627564558954L1153.1507923680792 450.87627564558954L1138.050123203132 454.09215889368005L1135.8129870305474 438.40424148342964ZM1115.0915132319813 438.40424148342964L1135.6172376154464 438.40424148342964L1133.4080656450187 454.09215889368005L1118.307396480072 450.87627564558954Q1116.685472754948 450.4847768153872 1115.9024750945432 449.47806553772404Q1115.0915132319813 448.47135426006093 1115.0915132319813 446.6536811198358L1115.0915132319813 446.6536811198358L1115.0915132319813 438.40424148342964ZM1162.7984421123506 540.4735793576081L1142.2727177288857 540.4735793576081L1144.4818896993133 524.7576977452004L1159.5825588642601 528.0015451954482Q1161.204482589384 528.1972946105493 1161.9874802497889 529.2878984946844Q1162.7984421123506 530.4064665809767 1162.7984421123506 532.2241397212019L1162.7984421123506 532.2241397212019L1162.7984421123506 540.4735793576081ZM1206.8979889144273 540.4735793576081L1188.972935331592 540.4735793576081L1188.972935331592 438.40424148342964L1199.6552605556842 438.40424148342964Q1203.6821056663366 438.40424148342964 1204.4930675288986 442.2073729768237L1204.4930675288986 442.2073729768237L1205.891277636764 452.6939487858146Q1211.5400464725406 445.6469698421727 1218.4751686075533 441.20066169916055Q1225.4102907425658 436.78231775830574 1234.6944058587924 436.78231775830574L1234.6944058587924 436.78231775830574Q1245.1530174656264 436.78231775830574 1251.5008913553354 442.5149792005541Q1257.8487652450444 448.2476406428025 1260.6451854607753 458.11900400433257L1260.6451854607753 458.11900400433257Q1264.8957441886864 447.2409293651393 1273.8442888790255 442.0116235617225Q1282.7928335693643 436.78231775830574 1293.2794093783552 436.78231775830574L1293.2794093783552 436.78231775830574Q1309.5825392360666 436.78231775830574 1318.4471913199336 447.1570367586674Q1327.3118434038006 457.53175575902907 1327.3118434038006 475.428845139707L1327.3118434038006 475.428845139707L1327.3118434038006 540.4735793576081L1309.3867898209655 540.4735793576081L1309.3867898209655 475.428845139707Q1309.3867898209655 463.5720234250079 1304.1574840175485 457.3080421417706Q1298.9002140119744 451.0720250606907 1288.833101235343 451.0720250606907L1288.833101235343 451.0720250606907Q1279.5769503212737 451.0720250606907 1273.2290764315646 457.61564836550104Q1266.9091667440127 464.1592716703114 1266.9091667440127 475.428845139707L1266.9091667440127 475.428845139707L1266.9091667440127 540.4735793576081L1248.9841131611774 540.4735793576081L1248.9841131611774 475.428845139707Q1248.9841131611774 463.15256039264824 1244.0344493793339 457.11229272666947Q1239.1127497996474 451.0720250606907 1229.660849470477 451.0720250606907L1229.660849470477 451.0720250606907Q1223.0053693570374 451.0720250606907 1217.356600521261 454.70737134114086Q1211.7357958876419 458.31475341943377 1206.8979889144273 464.35502108541255L1206.8979889144273 464.35502108541255L1206.8979889144273 540.4735793576081ZM1195.0132029975707 540.4735793576081L1174.4874786141058 540.4735793576081L1174.4874786141058 532.2241397212019Q1174.4874786141058 530.4064665809767 1175.298440476668 529.2878984946844Q1176.0814381370724 528.1972946105493 1177.7033618621963 528.0015451954482L1177.7033618621963 528.0015451954482L1192.8040310271435 524.7576977452004L1195.0132029975707 540.4735793576081ZM1221.3834456319134 540.4735793576081L1200.8577212484483 540.4735793576081L1203.066893218876 524.7576977452004L1218.1675623838228 528.0015451954482Q1219.7894861089467 528.1972946105493 1220.6004479715089 529.2878984946844Q1221.3834456319134 530.4064665809767 1221.3834456319134 532.2241397212019L1221.3834456319134 532.2241397212019L1221.3834456319134 540.4735793576081ZM1281.394623461499 540.4735793576081L1260.8688990780338 540.4735793576081L1263.0780710484614 524.7576977452004L1278.1787402134082 528.0015451954482Q1279.7726997363748 528.1972946105493 1280.583661598937 529.2878984946844Q1281.394623461499 530.4064665809767 1281.394623461499 532.2241397212019L1281.394623461499 532.2241397212019L1281.394623461499 540.4735793576081ZM1174.4874786141058 438.40424148342964L1195.0132029975707 438.40424148342964L1192.8040310271435 454.09215889368005L1177.7033618621963 450.87627564558954Q1176.0814381370724 450.4847768153872 1175.298440476668 449.47806553772404Q1174.4874786141058 448.47135426006093 1174.4874786141058 446.6536811198358L1174.4874786141058 446.6536811198358L1174.4874786141058 438.40424148342964ZM1341.7973001212868 540.4735793576081L1321.2715757378219 540.4735793576081L1323.480747708249 524.7576977452004L1338.5814168731958 528.0015451954482Q1340.1753763961628 528.1972946105493 1340.9863382587246 529.2878984946844Q1341.7973001212868 530.4064665809767 1341.7973001212868 532.2241397212019L1341.7973001212868 532.2241397212019L1341.7973001212868 540.4735793576081ZM1380.2480780875867 542.095503082732L1380.2480780875867 542.095503082732Q1372.1943878662814 542.095503082732 1365.7626213701005 538.9635124411134Q1359.3028906717623 535.8315217994948 1355.499759178368 529.7912541335161Q1351.6686634828166 523.7509864675371 1351.6686634828166 514.9142985858275L1351.6686634828166 514.9142985858275Q1351.6686634828166 508.87403091984874 1354.9964035395365 503.33711889270154Q1358.296179394099 497.8002068655543 1365.7626213701005 493.35389872254217L1365.7626213701005 493.35389872254217Q1373.2010991439447 489.13130419678845 1385.1977418694305 486.3069197789002Q1397.166420392759 483.482535361012 1414.4762615281334 483.0910365308097L1414.4762615281334 483.0910365308097L1414.4762615281334 475.2330957246058Q1414.4762615281334 463.34830980774944 1409.3588125333454 457.2241495352987Q1404.2133993364005 451.0720250606907 1394.3420359748707 451.0720250606907L1394.3420359748707 451.0720250606907Q1389.1127301714537 451.0720250606907 1383.3800687292055 453.7845526699497Q1377.6474072869569 456.52504448136597 1372.8096003137425 459.23757209062495Q1367.9717933405277 461.950099699884 1365.14740892264 461.950099699884L1365.14740892264 461.950099699884Q1363.3297357824144 461.950099699884 1362.0433824831784 460.94338842222083Q1360.729064981785 459.9366771445577 1359.918103119223 458.5384670366922L1359.918103119223 458.5384670366922L1356.7022198711325 452.8896982009158Q1365.14740892264 444.64025856450957 1374.9069154755407 440.61341345385705Q1384.6943862305989 436.58656834320453 1396.5512079452978 436.58656834320453L1396.5512079452978 436.58656834320453Q1408.044495031952 436.58656834320453 1415.9024358381557 441.424375316419Q1423.7324124422025 446.2342180874762 1427.8711143614842 454.90312075624206Q1432.0098162807658 463.5720234250079 1432.0098162807658 475.2330957246058L1432.0098162807658 475.2330957246058L1432.0098162807658 540.4735793576081L1424.151875474562 540.4735793576081Q1421.523240471775 540.4735793576081 1419.9292809488084 539.6626174950461Q1418.3073572236844 538.8516556324842 1417.6921447762238 536.2509848318543L1417.6921447762238 536.2509848318543L1415.6787222208973 526.7711203005265Q1407.6250319995925 534.0418128614269 1399.5713417782872 538.0686579720796Q1391.5176515569824 542.095503082732 1380.2480780875867 542.095503082732ZM1385.4773838910032 529.3997553033137L1385.4773838910032 529.3997553033137Q1394.5377853899718 529.3997553033137 1401.3890149185122 525.7644090228634Q1408.240244447053 522.1570269445706 1414.4762615281334 515.6972962462321L1414.4762615281334 515.6972962462321L1414.4762615281334 494.5563594153064Q1404.0176499212994 494.78007303256487 1395.544496667635 496.0664263318011Q1387.0993076161276 497.3807438331947 1381.1708967587779 499.7017726122513Q1375.2145216992712 502.02280139130795 1372.1104952598098 505.54629086312895Q1368.978504618191 509.0697803349499 1368.978504618191 514.1033367232656L1368.978504618191 514.1033367232656Q1368.978504618191 522.1570269445706 1373.7044547827763 525.7644090228634Q1378.4304049473617 529.3997553033137 1385.4773838910032 529.3997553033137ZM1446.495272998252 540.4735793576081L1425.969548614787 540.4735793576081L1428.1787205852147 524.7576977452004L1443.2793897501615 528.0015451954482Q1444.8733492731285 528.1972946105493 1445.6843111356902 529.2878984946844Q1446.495272998252 530.4064665809767 1446.495272998252 532.2241397212019L1446.495272998252 532.2241397212019L1446.495272998252 540.4735793576081ZM1487.1552229349795 540.4735793576081L1469.2581335543018 540.4735793576081L1469.2581335543018 438.40424148342964L1479.9124945762364 438.40424148342964Q1483.939339686889 438.40424148342964 1484.7503015494513 442.2073729768237L1484.7503015494513 442.2073729768237L1486.1485116573167 453.2811970311181Q1492.803991770756 445.84271925727387 1501.0534314071624 441.3125185077898Q1509.3028710435683 436.78231775830574 1519.9851962676607 436.78231775830574L1519.9851962676607 436.78231775830574Q1531.254769737056 436.78231775830574 1538.8051043195296 441.6201247315202Q1546.3554389020032 446.4579317047347 1550.2983914061838 455.21072697997243Q1554.213379708207 463.9635222552102 1554.213379708207 475.428845139707L1554.213379708207 475.428845139707L1554.213379708207 540.4735793576081L1536.288326125372 540.4735793576081L1536.288326125372 475.428845139707Q1536.288326125372 463.9635222552102 1530.947163513326 457.53175575902907Q1525.6339651034373 451.0720250606907 1514.7558904642437 451.0720250606907L1514.7558904642437 451.0720250606907Q1506.89794965804 451.0720250606907 1499.962827523027 454.90312075624206Q1492.9997411858571 458.73421645179343 1487.1552229349795 465.36173236307565L1487.1552229349795 465.36173236307565L1487.1552229349795 540.4735793576081ZM1475.2984012202805 540.4735793576081L1454.7447126346583 540.4735793576081L1454.7447126346583 532.2241397212019Q1454.7447126346583 530.4064665809767 1455.5556744972205 529.2878984946844Q1456.3666363597822 528.1972946105493 1457.9605958827487 528.0015451954482L1457.9605958827487 528.0015451954482L1473.061265047696 524.7576977452004L1475.2984012202805 540.4735793576081ZM1501.668643854623 540.4735793576081L1481.1149552690008 540.4735793576081L1483.3520914415858 524.7576977452004L1498.4527606065326 528.0015451954482Q1500.0467201294991 528.1972946105493 1500.8576819920613 529.2878984946844Q1501.668643854623 530.4064665809767 1501.668643854623 532.2241397212019L1501.668643854623 532.2241397212019L1501.668643854623 540.4735793576081ZM1568.6988364256931 540.4735793576081L1548.1731120422282 540.4735793576081L1550.3822840126554 524.7576977452004L1565.4829531776027 528.0015451954482Q1567.1048769027266 528.1972946105493 1567.9158387652888 529.2878984946844Q1568.6988364256931 530.4064665809767 1568.6988364256931 532.2241397212019L1568.6988364256931 532.2241397212019L1568.6988364256931 540.4735793576081ZM1454.7447126346583 438.40424148342964L1475.2984012202805 438.40424148342964L1473.061265047696 454.09215889368005L1457.9605958827487 450.87627564558954Q1456.3666363597822 450.4847768153872 1455.5556744972205 449.47806553772404Q1454.7447126346583 448.47135426006093 1454.7447126346583 446.6536811198358L1454.7447126346583 446.6536811198358L1454.7447126346583 438.40424148342964ZM1592.859907089608 542.095503082732L1592.859907089608 542.095503082732Q1587.8263507012925 542.095503082732 1584.1071118143705 538.3482999936525Q1580.3878729274484 534.6290611067304 1580.3878729274484 529.3997553033137L1580.3878729274484 529.3997553033137Q1580.3878729274484 524.1704494998969 1584.1071118143705 520.4512106129748Q1587.8263507012925 516.7040075238954 1592.859907089608 516.7040075238954L1592.859907089608 516.7040075238954Q1598.1171770951823 516.7040075238954 1601.8364159821044 520.4512106129748Q1605.5556548690265 524.1704494998969 1605.5556548690265 529.3997553033137L1605.5556548690265 529.3997553033137Q1605.5556548690265 534.6290611067304 1601.8364159821044 538.3482999936525Q1598.1171770951823 542.095503082732 1592.859907089608 542.095503082732ZM1660.113813277937 541.8717894654735L1660.113813277937 541.8717894654735Q1647.641779115777 541.8717894654735 1638.972876447011 535.4400229692924Q1630.3319379804025 529.0082564731113 1625.8856298373903 517.2073631627268Q1621.4672858965355 505.4344340544997 1621.4672858965355 489.74651664424925L1621.4672858965355 489.74651664424925Q1621.4672858965355 474.8415968944035 1626.6965916999525 462.8449541689178Q1631.925897503369 450.87627564558954 1641.9091176735287 443.7174398933184Q1651.8643736415306 436.58656834320453 1665.566832698612 436.58656834320453L1665.566832698612 436.58656834320453Q1675.0187330277827 436.58656834320453 1681.674213141222 439.8024515912951Q1688.3017290525045 443.01833483938566 1693.5310348559215 448.6671036751621L1693.5310348559215 448.6671036751621L1693.5310348559215 392.09552271092565L1711.4560884387565 392.09552271092565L1711.4560884387565 540.4735793576081L1700.8017274168214 540.4735793576081Q1696.7748823061693 540.4735793576081 1695.963920443607 536.6424836620567L1695.963920443607 536.6424836620567L1694.3419967184832 524.366198914998Q1687.7144808072007 532.2241397212019 1679.3531843621654 537.0619466944163Q1670.99188791713 541.8717894654735 1660.113813277937 541.8717894654735ZM1665.9583315288146 527.3863327479874L1665.9583315288146 527.3863327479874Q1674.8229836126816 527.3863327479874 1681.366606917492 523.359487637335Q1687.9102302223023 519.3326425266823 1693.5310348559215 511.8941647528381L1693.5310348559215 511.8941647528381L1693.5310348559215 462.56531214734474Q1688.4974784676056 455.90983203390516 1682.6809244188853 453.2811970311181Q1676.8364061680077 450.68052623048834 1669.5936778092646 450.68052623048834L1669.5936778092646 450.68052623048834Q1660.113813277937 450.68052623048834 1653.4862973666545 455.21072697997243Q1646.8308172532152 459.74092772945653 1643.4191845900232 468.4937230046943Q1639.9795877246743 477.24651827993205 1639.9795877246743 489.74651664424925L1639.9795877246743 489.74651664424925Q1639.9795877246743 508.0630690572867 1646.215604805754 517.7107188015584Q1652.4795860889913 527.3863327479874 1665.9583315288146 527.3863327479874ZM1679.0455781384348 392.09552271092565L1699.5713025219002 392.09552271092565L1697.3621305514725 407.78344012117606L1682.2614613865258 404.56755687308555Q1680.6675018635592 404.1760580428832 1679.856540000997 403.1693467652201Q1679.0455781384348 402.16263548755694 1679.0455781384348 400.3449623473319L1679.0455781384348 400.3449623473319L1679.0455781384348 392.09552271092565ZM1725.9695093584 540.4735793576081L1705.4158207727778 540.4735793576081L1707.624992743205 524.7576977452004L1722.7256619081518 528.0015451954482Q1724.3475856332761 528.1972946105493 1725.1585474958379 529.2878984946844Q1725.9695093584 530.4064665809767 1725.9695093584 532.2241397212019L1725.9695093584 532.2241397212019L1725.9695093584 540.4735793576081ZM1785.141761123266 541.8717894654735L1785.141761123266 541.8717894654735Q1770.4605549906787 541.8717894654735 1759.4706235428562 535.2442735541913Q1748.508656297191 528.5887934407517 1742.4683886312123 516.312508693693Q1736.4281209652336 504.03622394663427 1736.4281209652336 487.31363105656334L1736.4281209652336 487.31363105656334Q1736.4281209652336 473.0239237541784 1742.2726392161112 461.55860086968164Q1748.1171574669888 450.06531378302753 1758.8833752975524 443.43779787174526Q1769.649593128117 436.78231775830574 1784.1350498456031 436.78231775830574L1784.1350498456031 436.78231775830574Q1796.8307976250212 436.78231775830574 1806.2826979541915 442.43108659408216Q1815.7625624855195 448.05189122770133 1821.1037250975655 458.23086081296185Q1826.4169235074546 468.38186619606506 1826.4169235074546 482.47582408334887L1826.4169235074546 482.47582408334887Q1826.4169235074546 486.72638281125984 1825.5220690384203 488.1245929191253Q1824.6272145693865 489.5228030269908 1821.9985795665993 489.5228030269908L1821.9985795665993 489.5228030269908L1754.1574251329675 489.5228030269908Q1754.1574251329675 490.1380154744516 1754.1574251329675 490.83712052838433Q1754.1574251329675 491.53622558231706 1754.1574251329675 492.15143802977786L1754.1574251329675 492.15143802977786Q1755.1641364106308 509.0697803349499 1763.6093254621378 518.4377880576485Q1772.0545145136452 527.7778315781898 1786.5679354332888 527.7778315781898L1786.5679354332888 527.7778315781898Q1792.8039525143686 527.7778315781898 1798.9560769889767 525.2610533840318Q1805.0802372614276 522.7442751898741 1809.806187426013 520.3393538043455Q1814.5601017927552 517.9344324188169 1816.5735243480817 517.9344324188169L1816.5735243480817 517.9344324188169Q1818.782696318509 517.9344324188169 1819.9851570112733 519.5283919417835L1819.9851570112733 519.5283919417835L1825.0187133995892 526.1838720552231Q1820.9918682889365 531.41317785864 1814.252495569025 534.936667330461Q1807.5131228491132 538.4601568022817 1799.8509314580106 540.1659731338777Q1792.188740066908 541.8717894654735 1785.141761123266 541.8717894654735ZM1754.7446733782708 478.2532295575952L1754.7446733782708 478.2532295575952L1810.309543064844 478.2532295575952Q1810.309543064844 465.7811953954353 1803.4862777384606 457.9232545892314Q1796.6350482099201 450.06531378302753 1784.5545128779627 450.06531378302753L1784.5545128779627 450.06531378302753Q1771.467266268342 450.06531378302753 1764.00082429234 457.53175575902907Q1756.5623465184963 464.97023353287335 1754.7446733782708 478.2532295575952ZM1898.9001354991997 540.4735793576081L1882.7927550565896 540.4735793576081L1841.1260938421992 438.40424148342964L1855.8352641769434 438.40424148342964Q1858.044436147371 438.40424148342964 1859.4426462552365 439.49484536756466Q1860.8688205652593 440.61341345385705 1861.4560688105626 442.2073729768237L1861.4560688105626 442.2073729768237L1887.2390631996018 507.8673196421856Q1888.245774477265 510.46799044281533 1889.1406289462989 513.9075873081645Q1890.06344761749 517.319219971356 1891.0701588951533 522.1570269445706L1891.0701588951533 522.1570269445706Q1891.8531565555577 518.7174300792215 1892.7759752267489 515.1100480009286Q1893.6708296957831 511.4747017204785 1895.097004005806 507.8673196421856L1895.097004005806 507.8673196421856L1921.271497225047 442.2073729768237Q1921.8587454703506 440.61341345385705 1923.173062971744 439.49484536756466Q1924.4873804731378 438.40424148342964 1926.500803028464 438.40424148342964L1926.500803028464 438.40424148342964L1940.5947609157474 438.40424148342964L1898.9001354991997 540.4735793576081ZM1868.6987971693056 443.43779787174526L1853.5981280043588 443.43779787174526L1853.5981280043588 438.40424148342964L1868.6987971693056 438.40424148342964L1868.6987971693056 443.43779787174526ZM1931.3386100016783 443.43779787174526L1916.2379408367315 443.43779787174526L1916.2379408367315 438.40424148342964L1931.3386100016783 438.40424148342964L1931.3386100016783 443.43779787174526ZM1834.2748643136583 438.40424148342964L1854.8285528992806 438.40424148342964L1852.5914167266956 454.09215889368005L1837.4907475617488 450.87627564558954Q1835.8967880387822 450.4847768153872 1835.08582617622 449.47806553772404Q1834.2748643136583 448.47135426006093 1834.2748643136583 446.6536811198358L1834.2748643136583 446.6536811198358L1834.2748643136583 438.40424148342964ZM1859.4426462552365 438.40424148342964L1879.9963348408587 438.40424148342964L1879.9963348408587 446.6536811198358Q1879.9963348408587 448.47135426006093 1879.1853729782965 449.47806553772404Q1878.3744111157348 450.4847768153872 1876.752487390611 450.87627564558954L1876.752487390611 450.87627564558954L1861.651818225664 454.09215889368005L1859.4426462552365 438.40424148342964ZM1901.724519917088 438.40424148342964L1922.2782085027102 438.40424148342964L1920.0410723301252 454.09215889368005L1904.9404031651784 450.87627564558954Q1903.3464436422119 450.4847768153872 1902.5354817796501 449.47806553772404Q1901.724519917088 448.47135426006093 1901.724519917088 446.6536811198358L1901.724519917088 446.6536811198358L1901.724519917088 438.40424148342964ZM1926.892301858666 438.40424148342964L1947.4459904442883 438.40424148342964L1947.4459904442883 446.6536811198358Q1947.4459904442883 448.47135426006093 1946.6350285817261 449.47806553772404Q1945.8240667191644 450.4847768153872 1944.2021429940405 450.87627564558954L1944.2021429940405 450.87627564558954L1929.1014738290937 454.09215889368005L1926.892301858666 438.40424148342964Z " fill="#fcedda" transform="matrix(0.44930641604375793,0,0,0.4493064160437578,0,90.13101089143332)"/></g></svg>